<svg width="83" height="83" viewBox="0 0 83 83" fill="none" xmlns="http://www.w3.org/2000/svg">
<path d="M43.724 74.6002C37.124 74.6002 30.324 73.3002 24.624 70.3002V70.2002V71.5002C29.924 74.6002 36.224 76.5002 43.124 76.5002C50.624 76.5002 57.424 74.9002 63.024 71.8002V70.5002L62.224 70.9002C57.524 73.1002 51.024 74.6002 43.724 74.6002Z" fill="#D4E1FE"/>
<path d="M49.624 64.3002V64.2002C55.224 64.2002 60.024 66.1002 63.124 69.7002C58.624 72.3002 51.424 74.7002 42.924 74.5002C36.824 74.4002 30.124 73.1002 24.624 70.2002C27.724 67.1002 31.424 64.3002 37.824 64.2002H37.924V64.5002C37.624 64.7002 37.024 65.2002 37.224 65.6002C38.024 66.8002 40.024 68.3002 43.724 68.3002C48.024 68.4002 50.024 66.4002 50.224 65.4002C50.524 65.1002 49.624 64.6002 49.624 64.3002Z" fill="#85B9FD"/>
<path d="M49.5245 59.1V64.2C49.5245 64.5 50.2245 64.6 50.2245 65.2C50.2245 66.1 47.6245 68.2 43.8245 68.3C39.4245 68.3 37.4245 66.5 37.2245 65.5C37.1245 65.1 37.9245 64.5 37.9245 64.5V59L49.5245 59.1Z" fill="#FDD1A7"/>
<path d="M38.0244 61.3V59L49.5244 59.1V61.2C48.3244 61.7 46.7244 62.5 44.1244 62.5C41.6244 62.5 39.7244 62 38.0244 61.3Z" fill="#F7BB92"/>
<path d="M29.0249 44.7003C28.6249 44.2003 25.9249 41.9003 24.2249 44.8003C22.6249 47.4003 24.6249 52.1003 28.4249 52.0003C29.1249 52.0003 30.0249 51.5003 30.0249 51.3003L29.0249 44.7003Z" fill="#FDD1A7"/>
<path d="M59.324 44.6002C61.124 42.4002 63.724 43.5003 64.624 45.5003C65.524 47.5003 64.724 50.2003 62.424 51.4003C60.524 52.5003 59.024 51.8002 58.624 51.2002L59.324 44.6002Z" fill="#FDD1A7"/>
<path d="M28.8242 40.1003L28.9242 47.5003C29.2242 54.2003 36.6242 60.4003 44.2242 60.4003C50.1242 60.4003 58.0242 56.2003 59.2242 50.2003C59.6242 48.1003 59.4242 40.3003 59.4242 40.3003C55.5242 38.8003 52.1242 37.0003 51.9242 31.8003C51.9242 31.8003 47.5242 36.2003 40.9242 38.7003L28.8242 40.1003Z" fill="#FDD1A7"/>
<path d="M29.0248 41.4001L28.9248 40.5001L40.6248 37.7001L42.6248 37.0001C42.1248 38.2001 41.4248 38.7001 41.4248 38.8001C42.1248 39.1001 44.9248 39.2001 48.3248 37.3001L51.9248 34.2001C51.9248 34.2001 53.1248 38.2001 57.5248 39.6001C55.9248 39.5001 52.4248 37.1001 51.7248 34.1001C50.4248 36.3001 45.9248 39.5001 41.4248 39.6001C41.1248 39.6001 40.5248 39.6001 40.9248 38.7001C38.0248 40.0001 34.5248 41.1001 29.0248 41.4001Z" fill="#F7BB92"/>
<path d="M24.2242 44.8C23.0242 42.6 21.8242 39 21.3242 36.7C20.5242 32.6 21.3242 30.1 22.4242 28.5C23.4242 26.9 24.6242 25.5 26.5242 24.5C24.7242 24.1 23.9242 20.4 25.4242 20.3C26.7242 20.3 28.1242 21.1 32.2242 18.8C37.9242 15.8 40.9242 15 43.9242 15C48.6242 15 53.6242 16.7 55.7242 20L56.0242 20.9C56.0242 20.9 55.6242 18.8 56.6242 19.4C59.2242 20.4 59.1242 23 59.1242 23C62.2242 21.5 66.0242 27 66.0242 33C66.0242 37 65.0242 41.7 63.4242 44.2C62.1242 43.1 60.2242 43.5 59.4242 44.7V40.3C54.1242 39.3 52.1242 35.5 51.9242 31.8C50.5242 35.2 46.5242 38.2 41.4242 38.8C41.0242 39.1 41.1242 38.7 42.6242 36.1C38.9242 39 30.6242 40 28.8242 40L29.0242 44.8C27.4242 43 25.2242 43.1 24.2242 44.8Z" fill="#6E4339"/>
<path d="M34.4244 47C32.9244 47.1 30.4244 47 30.4244 47L30.0244 51.2L34.5244 51.7L38.5244 49.5V47.5L34.4244 47Z" fill="url(#paint0_radial_3_64)"/>
<path d="M53.8248 47C55.4248 47.1 58.7248 47.1 58.7248 47.1L58.5248 51.1L53.9248 51.7L49.9248 49.2V47.5L53.8248 47Z" fill="url(#paint1_radial_3_64)"/>
<path d="M36.424 43.6002C35.124 43.7002 34.224 44.7002 34.324 46.0002C34.424 47.3002 35.424 48.1002 36.624 48.0002C37.924 48.0002 38.924 47.0002 38.824 45.6002C38.724 44.5002 37.624 43.5002 36.424 43.6002Z" fill="#3F3835"/>
<path d="M51.1242 43.6002C49.9242 43.8002 48.9242 45.1002 49.1242 46.2002C49.2242 47.3002 50.2242 48.2002 51.6242 48.0002C52.7242 48.0002 53.7242 47.0002 53.6242 45.5002C53.4242 44.3002 52.4242 43.5002 51.1242 43.6002Z" fill="#3F3835"/>
<path d="M41.2246 52.6001C41.7246 53.3001 42.6246 54.0001 44.1246 54.0001C45.6246 54.0001 46.4246 53.3001 46.6246 53.0001L46.7246 52.8001" stroke="#583D33" stroke-width="0.75" stroke-miterlimit="10" stroke-linecap="round"/>
<path d="M49.5244 40.4999C50.2244 40.0999 52.9244 39.5999 54.9244 41.0999" stroke="#6D4339" stroke-miterlimit="10" stroke-linecap="round" stroke-linejoin="round"/>
<path d="M38.0244 40.5C36.6244 40.1 34.5244 40.2 33.0244 41.1" stroke="#6D4339" stroke-miterlimit="10" stroke-linecap="round" stroke-linejoin="round"/>
<path d="M49.5244 40.1999C49.5244 40.7999 49.9244 40.9999 50.2244 40.7999C51.9244 40.4999 53.5244 40.7999 54.6244 41.4999C55.2244 41.7999 56.1244 40.9999 55.1244 40.4999C53.6244 39.5999 51.4244 39.0999 49.5244 39.7999" fill="#6E4339"/>
<path d="M38.2245 40.0003C36.4245 39.6003 34.4245 39.8003 32.7245 40.8003C32.2245 41.3003 32.7245 42.0003 33.6245 41.6003C35.4245 41.0003 36.2245 40.6003 38.0245 40.8003C38.7245 41.1003 38.9245 40.2003 38.2245 40.0003Z" fill="#6E4339"/>
<circle cx="41.5" cy="41.5" r="39.5" fill="#cce7ff" stroke="white" stroke-width="4"/>
<path d="M41.724 75.6002C35.124 75.6002 28.324 74.3002 22.624 71.3002V71.2002V72.5002C27.924 75.6002 34.224 77.5002 41.124 77.5002C48.624 77.5002 55.424 75.9002 61.024 72.8002V71.5002L60.224 71.9002C55.524 74.1002 49.024 75.6002 41.724 75.6002Z" fill="#D4E1FE"/>
<path d="M47.624 65.3002V65.2002C53.224 65.2002 58.024 67.1002 61.124 70.7002C56.624 73.3002 49.424 75.7002 40.924 75.5002C34.824 75.4002 28.124 74.1002 22.624 71.2002C25.724 68.1002 29.424 65.3002 35.824 65.2002H35.924V65.5002C35.624 65.7002 35.024 66.2002 35.224 66.6002C36.024 67.8002 38.024 69.3002 41.724 69.3002C46.024 69.4002 48.024 67.4002 48.224 66.4002C48.524 66.1002 47.624 65.6002 47.624 65.3002Z" fill="#85B9FD"/>
<path d="M47.5245 60.1V65.2C47.5245 65.5 48.2245 65.6 48.2245 66.2C48.2245 67.1 45.6245 69.2 41.8245 69.3C37.4245 69.3 35.4245 67.5 35.2245 66.5C35.1245 66.1 35.9245 65.5 35.9245 65.5V60L47.5245 60.1Z" fill="#FDD1A7"/>
<path d="M36.0244 62.3V60L47.5244 60.1V62.2C46.3244 62.7 44.7244 63.5 42.1244 63.5C39.6244 63.5 37.7244 63 36.0244 62.3Z" fill="#F7BB92"/>
<path d="M27.0249 45.7003C26.6249 45.2003 23.9249 42.9003 22.2249 45.8003C20.6249 48.4003 22.6249 53.1003 26.4249 53.0003C27.1249 53.0003 28.0249 52.5003 28.0249 52.3003L27.0249 45.7003Z" fill="#FDD1A7"/>
<path d="M57.324 45.6002C59.124 43.4002 61.724 44.5003 62.624 46.5003C63.524 48.5003 62.724 51.2003 60.424 52.4003C58.524 53.5003 57.024 52.8002 56.624 52.2002L57.324 45.6002Z" fill="#FDD1A7"/>
<path d="M26.8242 41.1003L26.9242 48.5003C27.2242 55.2003 34.6242 61.4003 42.2242 61.4003C48.1242 61.4003 56.0242 57.2003 57.2242 51.2003C57.6242 49.1003 57.4242 41.3003 57.4242 41.3003C53.5242 39.8003 50.1242 38.0003 49.9242 32.8003C49.9242 32.8003 45.5242 37.2003 38.9242 39.7003L26.8242 41.1003Z" fill="#FDD1A7"/>
<path d="M27.0248 42.4001L26.9248 41.5001L38.6248 38.7001L40.6248 38.0001C40.1248 39.2001 39.4248 39.7001 39.4248 39.8001C40.1248 40.1001 42.9248 40.2001 46.3248 38.3001L49.9248 35.2001C49.9248 35.2001 51.1248 39.2001 55.5248 40.6001C53.9248 40.5001 50.4248 38.1001 49.7248 35.1001C48.4248 37.3001 43.9248 40.5001 39.4248 40.6001C39.1248 40.6001 38.5248 40.6001 38.9248 39.7001C36.0248 41.0001 32.5248 42.1001 27.0248 42.4001Z" fill="#F7BB92"/>
<path d="M22.2242 45.8C21.0242 43.6 19.8242 40 19.3242 37.7C18.5242 33.6 19.3242 31.1 20.4242 29.5C21.4242 27.9 22.6242 26.5 24.5242 25.5C22.7242 25.1 21.9242 21.4 23.4242 21.3C24.7242 21.3 26.1242 22.1 30.2242 19.8C35.9242 16.8 38.9242 16 41.9242 16C46.6242 16 51.6242 17.7 53.7242 21L54.0242 21.9C54.0242 21.9 53.6242 19.8 54.6242 20.4C57.2242 21.4 57.1242 24 57.1242 24C60.2242 22.5 64.0242 28 64.0242 34C64.0242 38 63.0242 42.7 61.4242 45.2C60.1242 44.1 58.2242 44.5 57.4242 45.7V41.3C52.1242 40.3 50.1242 36.5 49.9242 32.8C48.5242 36.2 44.5242 39.2 39.4242 39.8C39.0242 40.1 39.1242 39.7 40.6242 37.1C36.9242 40 28.6242 41 26.8242 41L27.0242 45.8C25.4242 44 23.2242 44.1 22.2242 45.8Z" fill="#6E4339"/>
<path d="M32.4244 48C30.9244 48.1 28.4244 48 28.4244 48L28.0244 52.2L32.5244 52.7L36.5244 50.5V48.5L32.4244 48Z" fill="url(#paint2_radial_3_64)"/>
<path d="M51.8248 48C53.4248 48.1 56.7248 48.1 56.7248 48.1L56.5248 52.1L51.9248 52.7L47.9248 50.2V48.5L51.8248 48Z" fill="url(#paint3_radial_3_64)"/>
<path d="M34.424 44.6002C33.124 44.7002 32.224 45.7002 32.324 47.0002C32.424 48.3002 33.424 49.1002 34.624 49.0002C35.924 49.0002 36.924 48.0002 36.824 46.6002C36.724 45.5002 35.624 44.5002 34.424 44.6002Z" fill="#3F3835"/>
<path d="M49.1242 44.6002C47.9242 44.8002 46.9242 46.1002 47.1242 47.2002C47.2242 48.3002 48.2242 49.2002 49.6242 49.0002C50.7242 49.0002 51.7242 48.0002 51.6242 46.5002C51.4242 45.3002 50.4242 44.5002 49.1242 44.6002Z" fill="#3F3835"/>
<path d="M39.2246 53.6001C39.7246 54.3001 40.6246 55.0001 42.1246 55.0001C43.6246 55.0001 44.4246 54.3001 44.6246 54.0001L44.7246 53.8001" stroke="#583D33" stroke-width="0.75" stroke-miterlimit="10" stroke-linecap="round"/>
<path d="M47.5244 41.4999C48.2244 41.0999 50.9244 40.5999 52.9244 42.0999" stroke="#6D4339" stroke-miterlimit="10" stroke-linecap="round" stroke-linejoin="round"/>
<path d="M36.0244 41.5C34.6244 41.1 32.5244 41.2 31.0244 42.1" stroke="#6D4339" stroke-miterlimit="10" stroke-linecap="round" stroke-linejoin="round"/>
<path d="M47.5244 41.1999C47.5244 41.7999 47.9244 41.9999 48.2244 41.7999C49.9244 41.4999 51.5244 41.7999 52.6244 42.4999C53.2244 42.7999 54.1244 41.9999 53.1244 41.4999C51.6244 40.5999 49.4244 40.0999 47.5244 40.7999" fill="#6E4339"/>
<path d="M36.2245 41.0003C34.4245 40.6003 32.4245 40.8003 30.7245 41.8003C30.2245 42.3003 30.7245 43.0003 31.6245 42.6003C33.4245 42.0003 34.2245 41.6003 36.0245 41.8003C36.7245 42.1003 36.9245 41.2003 36.2245 41.0003Z" fill="#6E4339"/>
<defs>
<radialGradient id="paint0_radial_3_64" cx="0" cy="0" r="1" gradientUnits="userSpaceOnUse" gradientTransform="translate(34.4244 48.866) scale(3.446 3.24337)">
<stop stop-color="#F7BC92"/>
<stop offset="1" stop-color="#FCDAB1"/>
</radialGradient>
<radialGradient id="paint1_radial_3_64" cx="0" cy="0" r="1" gradientUnits="userSpaceOnUse" gradientTransform="translate(53.6248 48.866) rotate(180) scale(3.446 3.24337)">
<stop stop-color="#F7BC92"/>
<stop offset="1" stop-color="#FCDAB1"/>
</radialGradient>
<radialGradient id="paint2_radial_3_64" cx="0" cy="0" r="1" gradientUnits="userSpaceOnUse" gradientTransform="translate(32.4244 49.866) scale(3.446 3.24337)">
<stop stop-color="#F7BC92"/>
<stop offset="1" stop-color="#FCDAB1"/>
</radialGradient>
<radialGradient id="paint3_radial_3_64" cx="0" cy="0" r="1" gradientUnits="userSpaceOnUse" gradientTransform="translate(51.6248 49.866) rotate(180) scale(3.446 3.24337)">
<stop stop-color="#F7BC92"/>
<stop offset="1" stop-color="#FCDAB1"/>
</radialGradient>
</defs>
</svg>
