<svg width="83" height="83" viewBox="0 0 83 83" fill="none" xmlns="http://www.w3.org/2000/svg">
<path d="M43.724 74.6002C37.124 74.6002 30.324 73.3002 24.624 70.3002V70.2002V71.5002C29.924 74.6002 36.224 76.5002 43.124 76.5002C50.624 76.5002 57.424 74.9002 63.024 71.8002V70.5002L62.224 70.9002C57.524 73.1002 51.024 74.6002 43.724 74.6002Z" fill="#D4E1FE"/>
<path d="M49.624 64.3002V64.2002C55.224 64.2002 60.024 66.1002 63.124 69.7002C58.624 72.3002 51.424 74.7002 42.924 74.5002C36.824 74.4002 30.124 73.1002 24.624 70.2002C27.724 67.1002 31.424 64.3002 37.824 64.2002H37.924V64.5002C37.624 64.7002 37.024 65.2002 37.224 65.6002C38.024 66.8002 40.024 68.3002 43.724 68.3002C48.024 68.4002 50.024 66.4002 50.224 65.4002C50.524 65.1002 49.624 64.6002 49.624 64.3002Z" fill="#85B9FD"/>
<path d="M49.5245 59.1V64.2C49.5245 64.5 50.2245 64.6 50.2245 65.2C50.2245 66.1 47.6245 68.2 43.8245 68.3C39.4245 68.3 37.4245 66.5 37.2245 65.5C37.1245 65.1 37.9245 64.5 37.9245 64.5V59L49.5245 59.1Z" fill="#FDD1A7"/>
<path d="M38.0244 61.3V59L49.5244 59.1V61.2C48.3244 61.7 46.7244 62.5 44.1244 62.5C41.6244 62.5 39.7244 62 38.0244 61.3Z" fill="#F7BB92"/>
<path d="M29.0249 44.7003C28.6249 44.2003 25.9249 41.9003 24.2249 44.8003C22.6249 47.4003 24.6249 52.1003 28.4249 52.0003C29.1249 52.0003 30.0249 51.5003 30.0249 51.3003L29.0249 44.7003Z" fill="#FDD1A7"/>
<path d="M59.324 44.6002C61.124 42.4002 63.724 43.5003 64.624 45.5003C65.524 47.5003 64.724 50.2003 62.424 51.4003C60.524 52.5003 59.024 51.8002 58.624 51.2002L59.324 44.6002Z" fill="#FDD1A7"/>
<path d="M28.8242 40.1003L28.9242 47.5003C29.2242 54.2003 36.6242 60.4003 44.2242 60.4003C50.1242 60.4003 58.0242 56.2003 59.2242 50.2003C59.6242 48.1003 59.4242 40.3003 59.4242 40.3003C55.5242 38.8003 52.1242 37.0003 51.9242 31.8003C51.9242 31.8003 47.5242 36.2003 40.9242 38.7003L28.8242 40.1003Z" fill="#FDD1A7"/>
<path d="M29.0248 41.4001L28.9248 40.5001L40.6248 37.7001L42.6248 37.0001C42.1248 38.2001 41.4248 38.7001 41.4248 38.8001C42.1248 39.1001 44.9248 39.2001 48.3248 37.3001L51.9248 34.2001C51.9248 34.2001 53.1248 38.2001 57.5248 39.6001C55.9248 39.5001 52.4248 37.1001 51.7248 34.1001C50.4248 36.3001 45.9248 39.5001 41.4248 39.6001C41.1248 39.6001 40.5248 39.6001 40.9248 38.7001C38.0248 40.0001 34.5248 41.1001 29.0248 41.4001Z" fill="#F7BB92"/>
<path d="M24.2242 44.8C23.0242 42.6 21.8242 39 21.3242 36.7C20.5242 32.6 21.3242 30.1 22.4242 28.5C23.4242 26.9 24.6242 25.5 26.5242 24.5C24.7242 24.1 23.9242 20.4 25.4242 20.3C26.7242 20.3 28.1242 21.1 32.2242 18.8C37.9242 15.8 40.9242 15 43.9242 15C48.6242 15 53.6242 16.7 55.7242 20L56.0242 20.9C56.0242 20.9 55.6242 18.8 56.6242 19.4C59.2242 20.4 59.1242 23 59.1242 23C62.2242 21.5 66.0242 27 66.0242 33C66.0242 37 65.0242 41.7 63.4242 44.2C62.1242 43.1 60.2242 43.5 59.4242 44.7V40.3C54.1242 39.3 52.1242 35.5 51.9242 31.8C50.5242 35.2 46.5242 38.2 41.4242 38.8C41.0242 39.1 41.1242 38.7 42.6242 36.1C38.9242 39 30.6242 40 28.8242 40L29.0242 44.8C27.4242 43 25.2242 43.1 24.2242 44.8Z" fill="#6E4339"/>
<path d="M34.4244 47C32.9244 47.1 30.4244 47 30.4244 47L30.0244 51.2L34.5244 51.7L38.5244 49.5V47.5L34.4244 47Z" fill="url(#paint0_radial_3_289)"/>
<path d="M53.8248 47C55.4248 47.1 58.7248 47.1 58.7248 47.1L58.5248 51.1L53.9248 51.7L49.9248 49.2V47.5L53.8248 47Z" fill="url(#paint1_radial_3_289)"/>
<path d="M36.424 43.6002C35.124 43.7002 34.224 44.7002 34.324 46.0002C34.424 47.3002 35.424 48.1002 36.624 48.0002C37.924 48.0002 38.924 47.0002 38.824 45.6002C38.724 44.5002 37.624 43.5002 36.424 43.6002Z" fill="#3F3835"/>
<path d="M51.1242 43.6002C49.9242 43.8002 48.9242 45.1002 49.1242 46.2002C49.2242 47.3002 50.2242 48.2002 51.6242 48.0002C52.7242 48.0002 53.7242 47.0002 53.6242 45.5002C53.4242 44.3002 52.4242 43.5002 51.1242 43.6002Z" fill="#3F3835"/>
<path d="M41.2246 52.6001C41.7246 53.3001 42.6246 54.0001 44.1246 54.0001C45.6246 54.0001 46.4246 53.3001 46.6246 53.0001L46.7246 52.8001" stroke="#583D33" stroke-width="0.75" stroke-miterlimit="10" stroke-linecap="round"/>
<path d="M49.5244 40.4999C50.2244 40.0999 52.9244 39.5999 54.9244 41.0999" stroke="#6D4339" stroke-miterlimit="10" stroke-linecap="round" stroke-linejoin="round"/>
<path d="M38.0244 40.5C36.6244 40.1 34.5244 40.2 33.0244 41.1" stroke="#6D4339" stroke-miterlimit="10" stroke-linecap="round" stroke-linejoin="round"/>
<path d="M49.5244 40.1999C49.5244 40.7999 49.9244 40.9999 50.2244 40.7999C51.9244 40.4999 53.5244 40.7999 54.6244 41.4999C55.2244 41.7999 56.1244 40.9999 55.1244 40.4999C53.6244 39.5999 51.4244 39.0999 49.5244 39.7999" fill="#6E4339"/>
<path d="M38.2245 40.0003C36.4245 39.6003 34.4245 39.8003 32.7245 40.8003C32.2245 41.3003 32.7245 42.0003 33.6245 41.6003C35.4245 41.0003 36.2245 40.6003 38.0245 40.8003C38.7245 41.1003 38.9245 40.2003 38.2245 40.0003Z" fill="#6E4339"/>
<circle cx="41.5" cy="41.5" r="39.5" fill="#B6F6CD" stroke="white" stroke-width="4"/>
<path d="M18.0967 55.9197C18.7722 60.4073 22.3913 63.5439 27.5063 63.5439H55.4938C58.5821 63.5439 62.7802 62.4823 64.3243 58.4772L58.389 52.2041H20.1716L18.0967 55.9197Z" fill="#84DCC8"/>
<path d="M56.7971 61.2761H27.0724C23.7428 61.2761 20.7028 60.0697 18.9174 58.0913L18.0488 56.6919L64.8555 58.3808C63.3596 60.0697 61.2365 61.2761 56.7971 61.2761Z" fill="#C0CEF9" stroke="#BADFFA" stroke-width="0.144763" stroke-miterlimit="10"/>
<path d="M18 33.1919V55.0994C18 57.1743 19.7372 59.6835 23.115 59.6835L55.7349 59.7318C59.2092 59.8765 62.0562 56.4022 62.0562 50.8047V33.1919H18Z" fill="#FFFFFB"/>
<path d="M62.0572 33.2886V50.3706C62.0572 54.617 60.4166 59.8767 54.8673 59.7319H23.116C21.7166 59.7319 20.1242 59.3459 19.4004 58.8151C20.7033 60.0215 22.9712 61.2761 27.0728 61.2761H56.7975C60.8991 61.2761 65.0007 60.3593 65.0007 55.2443V33.2886H62.0572Z" fill="#C0CEF9" stroke="#BADFFA" stroke-width="0.144763" stroke-miterlimit="10"/>
<path d="M56.4587 23.1069H25.6724C21.0883 23.1069 18 26.6295 18 30.7794V33.1438H64.9997V31.3584C64.9997 27.2086 61.6219 23.1069 56.4587 23.1069Z" fill="#70BDFF"/>
<path d="M25.9141 23.1069V26.0504C26.0588 27.5463 27.1204 29.8625 29.9674 29.8625C31.6563 29.8625 32.7179 28.9457 32.7179 27.6911C32.7179 27.0638 32.2836 26.0504 31.1738 26.0504" stroke="#7BC2FD" stroke-width="0.144763" stroke-linecap="round" stroke-linejoin="bevel"/>
<path d="M58.7744 23.3965C60.2703 24.5546 62.0557 26.34 62.0557 30.1521V32.9026H64.9992V31.455C64.9992 27.5464 62.3935 24.1203 58.7744 23.3965Z" fill="#5AAEFA"/>
<path d="M47.0498 23.1069V26.0504C47.1463 27.6911 48.3527 29.8625 50.8619 29.8625C52.4543 29.8625 53.6124 29.0905 53.6124 27.6911C53.6124 26.8225 52.9851 26.0504 51.9717 25.9539L52.02 23.1069H47.0498Z" fill="#5AAEFA"/>
<path d="M51.2475 19.0537C49.3173 19.0537 48.304 20.5013 48.3522 21.9007V26.1471C48.5452 27.0157 49.076 28.4633 50.958 28.4633C52.8399 28.4633 52.9364 27.1122 52.4539 26.3401L52.0196 25.8576V23.0588H53.8532V21.7077C53.8532 20.5013 53.0329 19.0537 51.2475 19.0537ZM52.0196 21.5629C51.344 21.756 50.7649 20.8391 51.1027 20.3566C51.7783 19.8258 52.6469 21.1286 52.0196 21.5629Z" fill="#FF7C85" stroke="#ED5C62" stroke-width="0.144763" stroke-linecap="round" stroke-linejoin="round"/>
<path d="M30.3047 19.0052C28.664 19.0052 27.2646 20.1151 27.2646 21.8522V26.2434C27.6024 27.2567 28.0367 28.4631 29.9186 28.4631C31.1732 28.4631 31.7523 27.7875 31.5593 26.8224L31.125 25.8573V23.0586H33.0552V21.8522C33.1034 20.1633 31.7523 18.9087 30.3047 19.0052ZM31.2698 21.5627C30.739 21.9487 29.7739 21.1284 30.3047 20.3563C30.9802 20.0186 31.8488 21.0801 31.2698 21.5627Z" fill="#FF7C85" stroke="#ED5C62" stroke-width="0.144763" stroke-linecap="round" stroke-linejoin="round"/>
<path d="M18.0488 33.0469H65.0003" stroke="#7BC2FD" stroke-width="0.144763" stroke-miterlimit="10"/>
<path d="M31.7047 36.6182H25.1904C24.4666 36.6182 23.791 37.149 23.791 37.921V42.5534C23.791 43.2773 24.3218 43.8563 25.1904 43.8563H31.753C32.525 43.8563 33.1041 43.422 33.1524 42.5052V38.0658C33.1524 37.0525 32.4768 36.6182 31.7047 36.6182Z" fill="#FFA7A2" stroke="#FE847F" stroke-width="0.144763" stroke-linecap="round" stroke-linejoin="round"/>
<path d="M42.5612 36.6182H36.9637C35.9986 36.6182 35.4678 37.149 35.4678 38.1623V42.5052C35.4678 43.4703 36.0951 43.9046 36.9637 43.9046H42.6094C43.3815 43.9046 43.9605 43.4703 43.9605 42.65V38.0175C43.9605 37.2937 43.2367 36.6182 42.5612 36.6182Z" fill="#FFA7A2" stroke="#FE847F" stroke-width="0.144763" stroke-linecap="round" stroke-linejoin="round"/>
<path d="M54.1906 36.6183H48.0623C47.1455 36.4736 46.5664 37.1491 46.5664 37.9212V42.5536C46.5664 43.3739 47.1455 43.8565 48.0623 43.8565H54.0458C54.9144 43.8565 55.5417 43.4222 55.59 42.4571V37.9212C55.59 37.1974 55.0592 36.5701 54.1906 36.6183Z" fill="#FFA7A2" stroke="#FE847F" stroke-width="0.144763" stroke-linecap="round" stroke-linejoin="round"/>
<path d="M31.5111 46.4139H25.3346C24.4177 46.3657 23.7422 46.9447 23.7422 47.8133V52.3975C23.7904 53.1213 24.3695 53.8934 25.2863 53.8934H31.6076C32.5245 53.8934 33.1035 53.2661 33.1035 52.2527V47.9098C33.1035 47.0895 32.4762 46.4139 31.5111 46.4139Z" fill="#FFA7A2" stroke="#FE847F" stroke-width="0.144763" stroke-linecap="round" stroke-linejoin="round"/>
<path d="M42.4647 46.4136H36.9154C36.1916 46.4136 35.4678 46.9444 35.4678 47.813V52.4454C35.516 53.4105 36.0951 53.893 36.8189 53.893H42.6577C43.285 53.9412 43.9123 53.2657 43.9123 52.3971L43.864 47.8612C43.864 47.0409 43.2367 46.4136 42.4647 46.4136Z" fill="#FFA7A2" stroke="#FE847F" stroke-width="0.144763" stroke-linecap="round" stroke-linejoin="round"/>
<path d="M53.9011 46.4136H48.0623C47.242 46.4136 46.5664 46.9926 46.5664 47.7164V52.3489C46.5664 53.1692 47.2902 53.893 48.1588 53.893H53.8528C54.9627 53.893 55.5417 53.1209 55.5417 52.1076V47.9095C55.5417 47.0409 54.9627 46.4136 53.9011 46.4136Z" fill="#FFDC64" stroke="#FFCE44" stroke-width="0.144763" stroke-miterlimit="10"/>
<defs>
<radialGradient id="paint0_radial_3_289" cx="0" cy="0" r="1" gradientUnits="userSpaceOnUse" gradientTransform="translate(34.4244 48.866) scale(3.446 3.24337)">
<stop stop-color="#F7BC92"/>
<stop offset="1" stop-color="#FCDAB1"/>
</radialGradient>
<radialGradient id="paint1_radial_3_289" cx="0" cy="0" r="1" gradientUnits="userSpaceOnUse" gradientTransform="translate(53.6248 48.866) rotate(180) scale(3.446 3.24337)">
<stop stop-color="#F7BC92"/>
<stop offset="1" stop-color="#FCDAB1"/>
</radialGradient>
</defs>
</svg>
