<svg width="83" height="83" viewBox="0 0 83 83" fill="none" xmlns="http://www.w3.org/2000/svg">
<path d="M43.724 74.6002C37.124 74.6002 30.324 73.3002 24.624 70.3002V70.2002V71.5002C29.924 74.6002 36.224 76.5002 43.124 76.5002C50.624 76.5002 57.424 74.9002 63.024 71.8002V70.5002L62.224 70.9002C57.524 73.1002 51.024 74.6002 43.724 74.6002Z" fill="#D4E1FE"/>
<path d="M49.624 64.3002V64.2002C55.224 64.2002 60.024 66.1002 63.124 69.7002C58.624 72.3002 51.424 74.7002 42.924 74.5002C36.824 74.4002 30.124 73.1002 24.624 70.2002C27.724 67.1002 31.424 64.3002 37.824 64.2002H37.924V64.5002C37.624 64.7002 37.024 65.2002 37.224 65.6002C38.024 66.8002 40.024 68.3002 43.724 68.3002C48.024 68.4002 50.024 66.4002 50.224 65.4002C50.524 65.1002 49.624 64.6002 49.624 64.3002Z" fill="#85B9FD"/>
<path d="M49.5245 59.1V64.2C49.5245 64.5 50.2245 64.6 50.2245 65.2C50.2245 66.1 47.6245 68.2 43.8245 68.3C39.4245 68.3 37.4245 66.5 37.2245 65.5C37.1245 65.1 37.9245 64.5 37.9245 64.5V59L49.5245 59.1Z" fill="#FDD1A7"/>
<path d="M38.0244 61.3V59L49.5244 59.1V61.2C48.3244 61.7 46.7244 62.5 44.1244 62.5C41.6244 62.5 39.7244 62 38.0244 61.3Z" fill="#F7BB92"/>
<path d="M29.0249 44.7003C28.6249 44.2003 25.9249 41.9003 24.2249 44.8003C22.6249 47.4003 24.6249 52.1003 28.4249 52.0003C29.1249 52.0003 30.0249 51.5003 30.0249 51.3003L29.0249 44.7003Z" fill="#FDD1A7"/>
<path d="M59.324 44.6002C61.124 42.4002 63.724 43.5003 64.624 45.5003C65.524 47.5003 64.724 50.2003 62.424 51.4003C60.524 52.5003 59.024 51.8002 58.624 51.2002L59.324 44.6002Z" fill="#FDD1A7"/>
<path d="M28.8242 40.1003L28.9242 47.5003C29.2242 54.2003 36.6242 60.4003 44.2242 60.4003C50.1242 60.4003 58.0242 56.2003 59.2242 50.2003C59.6242 48.1003 59.4242 40.3003 59.4242 40.3003C55.5242 38.8003 52.1242 37.0003 51.9242 31.8003C51.9242 31.8003 47.5242 36.2003 40.9242 38.7003L28.8242 40.1003Z" fill="#FDD1A7"/>
<path d="M29.0248 41.4001L28.9248 40.5001L40.6248 37.7001L42.6248 37.0001C42.1248 38.2001 41.4248 38.7001 41.4248 38.8001C42.1248 39.1001 44.9248 39.2001 48.3248 37.3001L51.9248 34.2001C51.9248 34.2001 53.1248 38.2001 57.5248 39.6001C55.9248 39.5001 52.4248 37.1001 51.7248 34.1001C50.4248 36.3001 45.9248 39.5001 41.4248 39.6001C41.1248 39.6001 40.5248 39.6001 40.9248 38.7001C38.0248 40.0001 34.5248 41.1001 29.0248 41.4001Z" fill="#F7BB92"/>
<path d="M24.2242 44.8C23.0242 42.6 21.8242 39 21.3242 36.7C20.5242 32.6 21.3242 30.1 22.4242 28.5C23.4242 26.9 24.6242 25.5 26.5242 24.5C24.7242 24.1 23.9242 20.4 25.4242 20.3C26.7242 20.3 28.1242 21.1 32.2242 18.8C37.9242 15.8 40.9242 15 43.9242 15C48.6242 15 53.6242 16.7 55.7242 20L56.0242 20.9C56.0242 20.9 55.6242 18.8 56.6242 19.4C59.2242 20.4 59.1242 23 59.1242 23C62.2242 21.5 66.0242 27 66.0242 33C66.0242 37 65.0242 41.7 63.4242 44.2C62.1242 43.1 60.2242 43.5 59.4242 44.7V40.3C54.1242 39.3 52.1242 35.5 51.9242 31.8C50.5242 35.2 46.5242 38.2 41.4242 38.8C41.0242 39.1 41.1242 38.7 42.6242 36.1C38.9242 39 30.6242 40 28.8242 40L29.0242 44.8C27.4242 43 25.2242 43.1 24.2242 44.8Z" fill="#6E4339"/>
<path d="M34.4244 47C32.9244 47.1 30.4244 47 30.4244 47L30.0244 51.2L34.5244 51.7L38.5244 49.5V47.5L34.4244 47Z" fill="url(#paint0_radial_3_101)"/>
<path d="M53.8248 47C55.4248 47.1 58.7248 47.1 58.7248 47.1L58.5248 51.1L53.9248 51.7L49.9248 49.2V47.5L53.8248 47Z" fill="url(#paint1_radial_3_101)"/>
<path d="M36.424 43.6002C35.124 43.7002 34.224 44.7002 34.324 46.0002C34.424 47.3002 35.424 48.1002 36.624 48.0002C37.924 48.0002 38.924 47.0002 38.824 45.6002C38.724 44.5002 37.624 43.5002 36.424 43.6002Z" fill="#3F3835"/>
<path d="M51.1242 43.6002C49.9242 43.8002 48.9242 45.1002 49.1242 46.2002C49.2242 47.3002 50.2242 48.2002 51.6242 48.0002C52.7242 48.0002 53.7242 47.0002 53.6242 45.5002C53.4242 44.3002 52.4242 43.5002 51.1242 43.6002Z" fill="#3F3835"/>
<path d="M41.2246 52.6001C41.7246 53.3001 42.6246 54.0001 44.1246 54.0001C45.6246 54.0001 46.4246 53.3001 46.6246 53.0001L46.7246 52.8001" stroke="#583D33" stroke-width="0.75" stroke-miterlimit="10" stroke-linecap="round"/>
<path d="M49.5244 40.4999C50.2244 40.0999 52.9244 39.5999 54.9244 41.0999" stroke="#6D4339" stroke-miterlimit="10" stroke-linecap="round" stroke-linejoin="round"/>
<path d="M38.0244 40.5C36.6244 40.1 34.5244 40.2 33.0244 41.1" stroke="#6D4339" stroke-miterlimit="10" stroke-linecap="round" stroke-linejoin="round"/>
<path d="M49.5244 40.1999C49.5244 40.7999 49.9244 40.9999 50.2244 40.7999C51.9244 40.4999 53.5244 40.7999 54.6244 41.4999C55.2244 41.7999 56.1244 40.9999 55.1244 40.4999C53.6244 39.5999 51.4244 39.0999 49.5244 39.7999" fill="#6E4339"/>
<path d="M38.2245 40.0003C36.4245 39.6003 34.4245 39.8003 32.7245 40.8003C32.2245 41.3003 32.7245 42.0003 33.6245 41.6003C35.4245 41.0003 36.2245 40.6003 38.0245 40.8003C38.7245 41.1003 38.9245 40.2003 38.2245 40.0003Z" fill="#6E4339"/>
<circle cx="41.5" cy="41.5" r="39.5" fill="#f1e6ff" stroke="white" stroke-width="4"/>
<path d="M65.6641 48.137C64.2698 45.0697 63.9213 42.0721 63.9213 39.4928C63.9213 36.2861 63.7819 33.149 62.8059 29.9423C61.2025 24.7837 57.5078 18.8582 52.14 18.8582L51.1641 18.9279C49.5607 17.4639 46.4934 16 40.777 16C32.2722 16 23.7674 21.6466 20.979 29.0361C19.4453 33.2885 19.5847 37.6803 19.2362 42.2116C18.6785 47.3005 16.7963 48.9736 16.0991 52.3197C15.8203 54.1322 16.1689 55.4568 16.6568 56.9207C17.2145 58.3846 19.1665 59.8486 19.027 62.637C18.9573 64.6587 17.354 64.9375 17.4934 67.1683C17.7025 69.4688 19.5847 70.7933 22.2338 70.5842C24.7434 70.4447 24.8828 69.3991 26.5559 68.2837C28.4381 66.9592 31.7843 65.6346 34.6424 65.3558H36.1064V60.6154L41.6136 61.7308L47.0511 60.6851V65.2861H48.4453C51.5126 65.2861 54.7194 66.262 56.6016 67.4471C58.2049 68.4231 59.1112 69.8173 60.2963 70.3053C61.0631 70.6539 62.5271 70.5842 63.0848 70.4447C64.967 70.1659 66.2915 68.1443 65.3155 65.8438C64.967 64.9375 63.991 64.3798 63.9213 62.4976C63.9213 59.5697 66.7795 58.7332 67.128 55.4568C67.4766 52.3197 66.4309 50.2284 65.6641 48.137Z" fill="#FBF4B7" stroke="#ECBEFC" stroke-width="0.236671" stroke-miterlimit="10"/>
<path d="M47.7483 65.4255C48.1666 66.8894 45.3781 68.7019 41.6137 68.7019C37.8492 68.7019 35.3396 67.0985 35.3396 65.9832V65.4952H34.5728C33.8757 65.3558 28.5776 66.4711 26.1377 68.3534L24.3252 69.9567C27.6016 71.9086 31.4358 73.7909 41.6834 74C51.0944 74 56.4622 72.536 59.2507 70.5144L59.3901 70.3053L59.3204 70.1659C58.7627 69.8173 57.9262 68.7716 56.1834 67.7259C53.8132 66.4711 50.6762 65.3558 47.7483 65.4255Z" fill="#CA8AFF" stroke="#B57FFF" stroke-width="0.219104" stroke-linecap="round" stroke-linejoin="round"/>
<path d="M36.3154 60.6851V65.3557H35.5486C34.9909 67.3774 38.7553 68.7019 41.8226 68.7019C44.6808 68.7019 48.0269 67.3774 47.8178 65.4254H47.1207L47.1904 60.6851C44.7505 61.4519 42.1712 62.2187 36.3154 60.6851Z" fill="#FFD6BB"/>
<path d="M36.3164 62.4976C39.0352 63.4735 41.8933 63.7524 44.6818 63.125L47.1217 62.4278V60.6851L41.8933 61.661L36.3164 60.7548V62.4976Z" fill="#FFC2A1"/>
<path d="M49.3521 31.7549C48.0973 33.9159 43.9843 36.3558 41.1261 38.0289C37.4314 39.702 36.2463 39.4929 33.179 40.1203C30.5997 40.8174 28.578 41.9328 26.5564 42.6996C26.8352 44.7212 26.1381 47.0914 26.4867 49.8102C27.3929 55.1083 32.4122 59.6395 37.9891 61.1035C44.6814 62.8462 52.768 59.2212 55.6261 54.0626C57.5083 50.9256 57.2992 47.5794 57.2295 42.5602L57.0204 39.7717C54.929 38.0289 50.5372 34.9616 49.3521 31.7549Z" fill="#FAE0CB"/>
<path d="M33.8057 40.0508C38.7552 39.0748 47.4691 34.9618 49.4211 29.4546C49.9788 32.5219 53.0461 36.356 54.51 37.6806C52.9763 36.7046 50.1879 33.9858 49.3513 31.8248C47.8874 34.4738 42.2408 37.7503 39.8706 38.6565C38.0581 39.4233 36.3153 39.7022 33.8057 40.0508Z" fill="#FFC2A1"/>
<path d="M26.5566 42.9094L26.208 41.5152C27.3931 41.6546 29.7633 41.0969 30.7393 40.9575L30.321 42.1426L26.5566 42.9094Z" fill="#FFC2A1"/>
<path d="M26.486 45.6973C25.5797 44.6517 24.3946 44.0243 22.7912 44.4425C21.397 44.7911 20.2119 46.743 20.8393 48.8344C21.6061 51.4137 24.8129 53.505 27.1831 52.2502C26.5557 50.5772 26.1374 48.8344 26.486 45.6973Z" fill="#FDCCA9"/>
<path d="M57.0205 45.3489L57.2296 52.0412C59.1119 53.4355 62.1792 51.6927 62.7369 49.6013C63.434 47.8586 62.8763 45.6278 60.8546 44.5821C59.7393 44.2336 58.2753 44.3033 57.0205 45.3489Z" fill="#FDCCA9"/>
<path d="M30.3202 41.4442C31.087 40.3985 35.6183 39.3528 36.3154 40.8168C36.3851 41.0956 36.1063 41.5836 35.8971 41.5139C34.3635 41.1654 32.8996 41.3048 31.0173 42.211C30.4596 42.4899 29.9717 41.9322 30.3202 41.4442Z" fill="#FFB884" stroke="#FFDEBD" stroke-width="0.175464" stroke-miterlimit="10"/>
<path d="M53.0465 41.2358C52.3494 40.4689 48.9335 39.493 47.4696 40.5386C47.0513 40.8175 47.1907 41.5843 47.8181 41.5146C49.5609 41.0963 51.3734 41.5146 52.6282 42.2117C53.3253 42.4906 53.6739 41.654 53.0465 41.2358Z" fill="#FFB884" stroke="#FFDEBD" stroke-width="0.175464" stroke-miterlimit="10"/>
<path d="M34.2254 44.6511C33.598 44.6511 32.9706 44.9997 32.5523 45.3482L32.0643 44.7905C31.0186 44.0237 30.7398 45.3482 31.8552 45.7665L31.9249 46.0454C31.3672 46.1151 30.4609 45.3482 30.1124 45.7665C29.6244 46.8122 31.5066 47.0213 31.9249 47.0213C32.134 48.067 32.9706 48.8338 34.2254 48.8338C35.4105 48.8338 36.4561 48.1367 36.4561 46.7425C36.4561 45.7665 35.6196 44.6511 34.2254 44.6511Z" fill="#473F41"/>
<path d="M32.0637 46.6734C31.506 46.7431 30.0421 46.534 30.1118 45.9763C30.3209 45.4186 31.2272 46.3945 32.0637 46.1854" stroke="#282123" stroke-width="0.175464" stroke-miterlimit="10"/>
<path d="M32.551 47.1611C31.0871 47.1611 29.0654 47.928 29.0654 49.8799C29.0654 51.6924 30.7385 52.7381 32.2722 52.7381C33.8755 52.7381 34.9909 51.6227 35.0606 49.8799C35.2698 48.2068 33.9452 47.1611 32.551 47.1611Z" fill="url(#paint2_radial_3_101)"/>
<path d="M50.2583 47.1611C48.7944 47.1611 46.9122 47.8583 46.9122 49.8102C46.8425 51.6227 48.5853 52.7381 50.0492 52.7381C51.6526 52.8078 53.0468 51.6227 53.1165 49.8799C53.3256 48.2068 51.6526 47.1611 50.2583 47.1611Z" fill="url(#paint3_radial_3_101)"/>
<path d="M51.7221 45.697L52.0706 45.3484C52.4889 44.5816 51.3735 44.233 50.9552 45.2787L50.8855 45.1393C50.537 44.9301 50.1884 44.6513 49.3519 44.6513C48.0971 44.6513 46.8422 45.3484 46.912 46.7426C46.912 47.9277 47.8879 48.834 49.0033 48.834C50.2581 48.834 51.3038 48.2763 51.5129 47.0215C51.9312 47.0215 53.3254 46.7426 53.186 46.0455C53.1163 45.2787 52.1403 46.1152 51.4432 46.0455L51.7221 45.697Z" fill="#474142" stroke="#FEEDDD" stroke-width="0.152041" stroke-miterlimit="10"/>
<path d="M51.4437 46.1153C51.9317 45.9759 52.7683 45.6273 52.9774 45.9759C53.1865 46.673 51.4437 46.7427 51.374 46.7427" stroke="#312A2B" stroke-width="0.304152" stroke-miterlimit="10" stroke-linecap="round"/>
<path d="M39.1735 53.0869C38.7553 52.7383 38.1976 53.296 38.5461 53.784C39.1735 54.4811 40.1495 55.5268 41.8226 55.5268C43.1471 55.5965 44.611 54.6903 44.8202 54.0629C45.3081 53.296 44.4019 52.7383 44.0533 53.3657C43.0077 54.6903 40.4283 54.8994 39.1735 53.0869Z" fill="#473F41"/>
<path d="M36.1056 60.6151C38.8941 61.6608 42.0311 62.3579 47.1201 60.6848C50.6753 59.2906 54.1609 56.8507 55.9037 53.0862C57.5071 50.1584 57.2979 46.0454 57.0191 39.7713C55.1369 38.4468 50.3965 34.1247 49.3508 31.8242C47.8172 34.2641 41.8917 37.9588 38.197 39.0742L34.9902 39.7713" stroke="#FFEAD7" stroke-width="0.182505" stroke-miterlimit="10"/>
<path d="M32.4811 45.4882C32.2023 45.0699 31.4355 44.3728 31.2263 44.7911C31.0172 45.4185 32.1326 45.8368 32.1326 45.8368" stroke="#282123" stroke-width="0.175464" stroke-miterlimit="10"/>
<defs>
<radialGradient id="paint0_radial_3_101" cx="0" cy="0" r="1" gradientUnits="userSpaceOnUse" gradientTransform="translate(34.4244 48.866) scale(3.446 3.24337)">
<stop stop-color="#F7BC92"/>
<stop offset="1" stop-color="#FCDAB1"/>
</radialGradient>
<radialGradient id="paint1_radial_3_101" cx="0" cy="0" r="1" gradientUnits="userSpaceOnUse" gradientTransform="translate(53.6248 48.866) rotate(180) scale(3.446 3.24337)">
<stop stop-color="#F7BC92"/>
<stop offset="1" stop-color="#FCDAB1"/>
</radialGradient>
<radialGradient id="paint2_radial_3_101" cx="0" cy="0" r="1" gradientUnits="userSpaceOnUse" gradientTransform="translate(33.4712 50.8545) scale(2.79195 2.57138)">
<stop stop-color="#FFBF9D"/>
<stop offset="1" stop-color="#FFD6BB" stop-opacity="0"/>
</radialGradient>
<radialGradient id="paint3_radial_3_101" cx="0" cy="0" r="1" gradientUnits="userSpaceOnUse" gradientTransform="translate(49.603 50.8545) scale(2.79195 2.57138)">
<stop stop-color="#FFBF9D"/>
<stop offset="1" stop-color="#FFD6BB" stop-opacity="0"/>
</radialGradient>
</defs>
</svg>
