<svg width="83" height="83" viewBox="0 0 83 83" fill="none" xmlns="http://www.w3.org/2000/svg">
<path d="M43.724 74.6002C37.124 74.6002 30.324 73.3002 24.624 70.3002V70.2002V71.5002C29.924 74.6002 36.224 76.5002 43.124 76.5002C50.624 76.5002 57.424 74.9002 63.024 71.8002V70.5002L62.224 70.9002C57.524 73.1002 51.024 74.6002 43.724 74.6002Z" fill="#D4E1FE"/>
<path d="M49.624 64.3002V64.2002C55.224 64.2002 60.024 66.1002 63.124 69.7002C58.624 72.3002 51.424 74.7002 42.924 74.5002C36.824 74.4002 30.124 73.1002 24.624 70.2002C27.724 67.1002 31.424 64.3002 37.824 64.2002H37.924V64.5002C37.624 64.7002 37.024 65.2002 37.224 65.6002C38.024 66.8002 40.024 68.3002 43.724 68.3002C48.024 68.4002 50.024 66.4002 50.224 65.4002C50.524 65.1002 49.624 64.6002 49.624 64.3002Z" fill="#85B9FD"/>
<path d="M49.5245 59.1V64.2C49.5245 64.5 50.2245 64.6 50.2245 65.2C50.2245 66.1 47.6245 68.2 43.8245 68.3C39.4245 68.3 37.4245 66.5 37.2245 65.5C37.1245 65.1 37.9245 64.5 37.9245 64.5V59L49.5245 59.1Z" fill="#FDD1A7"/>
<path d="M38.0244 61.3V59L49.5244 59.1V61.2C48.3244 61.7 46.7244 62.5 44.1244 62.5C41.6244 62.5 39.7244 62 38.0244 61.3Z" fill="#F7BB92"/>
<path d="M29.0249 44.7003C28.6249 44.2003 25.9249 41.9003 24.2249 44.8003C22.6249 47.4003 24.6249 52.1003 28.4249 52.0003C29.1249 52.0003 30.0249 51.5003 30.0249 51.3003L29.0249 44.7003Z" fill="#FDD1A7"/>
<path d="M59.324 44.6002C61.124 42.4002 63.724 43.5003 64.624 45.5003C65.524 47.5003 64.724 50.2003 62.424 51.4003C60.524 52.5003 59.024 51.8002 58.624 51.2002L59.324 44.6002Z" fill="#FDD1A7"/>
<path d="M28.8242 40.1003L28.9242 47.5003C29.2242 54.2003 36.6242 60.4003 44.2242 60.4003C50.1242 60.4003 58.0242 56.2003 59.2242 50.2003C59.6242 48.1003 59.4242 40.3003 59.4242 40.3003C55.5242 38.8003 52.1242 37.0003 51.9242 31.8003C51.9242 31.8003 47.5242 36.2003 40.9242 38.7003L28.8242 40.1003Z" fill="#FDD1A7"/>
<path d="M29.0248 41.4001L28.9248 40.5001L40.6248 37.7001L42.6248 37.0001C42.1248 38.2001 41.4248 38.7001 41.4248 38.8001C42.1248 39.1001 44.9248 39.2001 48.3248 37.3001L51.9248 34.2001C51.9248 34.2001 53.1248 38.2001 57.5248 39.6001C55.9248 39.5001 52.4248 37.1001 51.7248 34.1001C50.4248 36.3001 45.9248 39.5001 41.4248 39.6001C41.1248 39.6001 40.5248 39.6001 40.9248 38.7001C38.0248 40.0001 34.5248 41.1001 29.0248 41.4001Z" fill="#F7BB92"/>
<path d="M24.2242 44.8C23.0242 42.6 21.8242 39 21.3242 36.7C20.5242 32.6 21.3242 30.1 22.4242 28.5C23.4242 26.9 24.6242 25.5 26.5242 24.5C24.7242 24.1 23.9242 20.4 25.4242 20.3C26.7242 20.3 28.1242 21.1 32.2242 18.8C37.9242 15.8 40.9242 15 43.9242 15C48.6242 15 53.6242 16.7 55.7242 20L56.0242 20.9C56.0242 20.9 55.6242 18.8 56.6242 19.4C59.2242 20.4 59.1242 23 59.1242 23C62.2242 21.5 66.0242 27 66.0242 33C66.0242 37 65.0242 41.7 63.4242 44.2C62.1242 43.1 60.2242 43.5 59.4242 44.7V40.3C54.1242 39.3 52.1242 35.5 51.9242 31.8C50.5242 35.2 46.5242 38.2 41.4242 38.8C41.0242 39.1 41.1242 38.7 42.6242 36.1C38.9242 39 30.6242 40 28.8242 40L29.0242 44.8C27.4242 43 25.2242 43.1 24.2242 44.8Z" fill="#6E4339"/>
<path d="M34.4244 47C32.9244 47.1 30.4244 47 30.4244 47L30.0244 51.2L34.5244 51.7L38.5244 49.5V47.5L34.4244 47Z" fill="url(#paint0_radial_3_221)"/>
<path d="M53.8248 47C55.4248 47.1 58.7248 47.1 58.7248 47.1L58.5248 51.1L53.9248 51.7L49.9248 49.2V47.5L53.8248 47Z" fill="url(#paint1_radial_3_221)"/>
<path d="M36.424 43.6002C35.124 43.7002 34.224 44.7002 34.324 46.0002C34.424 47.3002 35.424 48.1002 36.624 48.0002C37.924 48.0002 38.924 47.0002 38.824 45.6002C38.724 44.5002 37.624 43.5002 36.424 43.6002Z" fill="#3F3835"/>
<path d="M51.1242 43.6002C49.9242 43.8002 48.9242 45.1002 49.1242 46.2002C49.2242 47.3002 50.2242 48.2002 51.6242 48.0002C52.7242 48.0002 53.7242 47.0002 53.6242 45.5002C53.4242 44.3002 52.4242 43.5002 51.1242 43.6002Z" fill="#3F3835"/>
<path d="M41.2246 52.6001C41.7246 53.3001 42.6246 54.0001 44.1246 54.0001C45.6246 54.0001 46.4246 53.3001 46.6246 53.0001L46.7246 52.8001" stroke="#583D33" stroke-width="0.75" stroke-miterlimit="10" stroke-linecap="round"/>
<path d="M49.5244 40.4999C50.2244 40.0999 52.9244 39.5999 54.9244 41.0999" stroke="#6D4339" stroke-miterlimit="10" stroke-linecap="round" stroke-linejoin="round"/>
<path d="M38.0244 40.5C36.6244 40.1 34.5244 40.2 33.0244 41.1" stroke="#6D4339" stroke-miterlimit="10" stroke-linecap="round" stroke-linejoin="round"/>
<path d="M49.5244 40.1999C49.5244 40.7999 49.9244 40.9999 50.2244 40.7999C51.9244 40.4999 53.5244 40.7999 54.6244 41.4999C55.2244 41.7999 56.1244 40.9999 55.1244 40.4999C53.6244 39.5999 51.4244 39.0999 49.5244 39.7999" fill="#6E4339"/>
<path d="M38.2245 40.0003C36.4245 39.6003 34.4245 39.8003 32.7245 40.8003C32.2245 41.3003 32.7245 42.0003 33.6245 41.6003C35.4245 41.0003 36.2245 40.6003 38.0245 40.8003C38.7245 41.1003 38.9245 40.2003 38.2245 40.0003Z" fill="#6E4339"/>
<circle cx="41.5" cy="41.5" r="39.5" fill="#fff9e0" stroke="white" stroke-width="4"/>
<path d="M64.2484 49.798H18.0669C17.7883 49.798 17.4541 49.4081 17.4541 48.3497V25.5653C17.4541 23.2813 19.0696 22 20.908 22H61.4073C63.4685 22 64.7498 23.337 64.7498 25.5653V48.3497C64.7498 48.851 64.6941 49.798 64.2484 49.798Z" fill="#D4E0F2"/>
<path d="M17.7318 49.7422C16.729 50.9678 13.1637 55.3129 12.2724 57.3741C11.8268 58.0426 12.0496 61.3851 14.9464 61.3851H67.3114C68.9269 61.3851 69.874 60.6609 69.9297 58.5997C69.9297 57.8755 64.5818 49.7979 64.5261 49.7422H17.7318Z" fill="#EDF2F7" stroke="#D8E5ED" stroke-width="0.217594" stroke-miterlimit="10"/>
<path d="M12.1612 57.9312C11.6599 58.8782 12.2727 61.3293 14.7795 61.3293L66.866 61.385C69.4286 61.385 70.2642 59.7138 69.9299 58.0983C69.7628 58.5996 69.4286 58.8782 68.4815 58.9339C66.6989 59.1567 17.0635 59.101 13.2754 58.8225C12.4398 58.7111 12.2727 58.4882 12.1612 57.9312Z" fill="#AEC1DA" stroke="#9DB8DD" stroke-width="0.167624" stroke-miterlimit="10" stroke-linecap="square" stroke-linejoin="round"/>
<path d="M20.2948 50.8008C20.0163 50.8565 19.9048 50.9122 19.682 51.2464L17.8994 53.9204C17.7323 54.2546 17.788 54.5889 18.1779 54.5889C24.1386 54.3661 43.1349 54.2546 63.5795 54.5889C64.8051 54.5889 64.1923 53.809 62.9667 51.5807C62.5768 50.9122 62.4097 50.8008 62.0197 50.8008H20.2948Z" fill="#C9D9EA" stroke="#BFD2E1" stroke-width="0.227565" stroke-miterlimit="10" stroke-linecap="square" stroke-linejoin="round"/>
<path d="M33.8876 55.48C33.6648 55.5357 33.609 55.7028 33.4419 55.9256L32.5506 57.3183C32.3835 57.5969 32.4949 57.8197 33.7762 57.8197H48.6501C49.3743 57.8197 49.5971 57.5969 49.43 57.3183L48.7058 55.9256C48.5387 55.5914 48.3158 55.48 47.9259 55.48H33.8876Z" fill="#C9D9EA" stroke="#BFD2E1" stroke-width="0.227565" stroke-miterlimit="10" stroke-linecap="square" stroke-linejoin="round"/>
<path d="M21.4644 23.7266H60.9053C61.9637 23.6709 62.7993 24.5622 62.7993 25.5092V46.6781C62.7993 47.7922 62.7993 48.6279 61.1838 48.6279H21.1301C20.2388 48.6279 19.626 48.0708 19.626 47.1795L19.5703 25.6207C19.626 24.6179 20.4616 23.7266 21.4644 23.7266Z" fill="#4fbeff" stroke="#cce7ff" stroke-width="0.227565" stroke-miterlimit="10"/>
<defs>
<radialGradient id="paint0_radial_3_221" cx="0" cy="0" r="1" gradientUnits="userSpaceOnUse" gradientTransform="translate(34.4244 48.866) scale(3.446 3.24337)">
<stop stop-color="#F7BC92"/>
<stop offset="1" stop-color="#FCDAB1"/>
</radialGradient>
<radialGradient id="paint1_radial_3_221" cx="0" cy="0" r="1" gradientUnits="userSpaceOnUse" gradientTransform="translate(53.6248 48.866) rotate(180) scale(3.446 3.24337)">
<stop stop-color="#F7BC92"/>
<stop offset="1" stop-color="#FCDAB1"/>
</radialGradient>
</defs>
</svg>
