<svg width="83" height="83" viewBox="0 0 83 83" fill="none" xmlns="http://www.w3.org/2000/svg">
<path d="M43.724 74.6002C37.124 74.6002 30.324 73.3002 24.624 70.3002V70.2002V71.5002C29.924 74.6002 36.224 76.5002 43.124 76.5002C50.624 76.5002 57.424 74.9002 63.024 71.8002V70.5002L62.224 70.9002C57.524 73.1002 51.024 74.6002 43.724 74.6002Z" fill="#D4E1FE"/>
<path d="M49.624 64.3002V64.2002C55.224 64.2002 60.024 66.1002 63.124 69.7002C58.624 72.3002 51.424 74.7002 42.924 74.5002C36.824 74.4002 30.124 73.1002 24.624 70.2002C27.724 67.1002 31.424 64.3002 37.824 64.2002H37.924V64.5002C37.624 64.7002 37.024 65.2002 37.224 65.6002C38.024 66.8002 40.024 68.3002 43.724 68.3002C48.024 68.4002 50.024 66.4002 50.224 65.4002C50.524 65.1002 49.624 64.6002 49.624 64.3002Z" fill="#85B9FD"/>
<path d="M49.5245 59.1V64.2C49.5245 64.5 50.2245 64.6 50.2245 65.2C50.2245 66.1 47.6245 68.2 43.8245 68.3C39.4245 68.3 37.4245 66.5 37.2245 65.5C37.1245 65.1 37.9245 64.5 37.9245 64.5V59L49.5245 59.1Z" fill="#FDD1A7"/>
<path d="M38.0244 61.3V59L49.5244 59.1V61.2C48.3244 61.7 46.7244 62.5 44.1244 62.5C41.6244 62.5 39.7244 62 38.0244 61.3Z" fill="#F7BB92"/>
<path d="M29.0249 44.7003C28.6249 44.2003 25.9249 41.9003 24.2249 44.8003C22.6249 47.4003 24.6249 52.1003 28.4249 52.0003C29.1249 52.0003 30.0249 51.5003 30.0249 51.3003L29.0249 44.7003Z" fill="#FDD1A7"/>
<path d="M59.324 44.6002C61.124 42.4002 63.724 43.5003 64.624 45.5003C65.524 47.5003 64.724 50.2003 62.424 51.4003C60.524 52.5003 59.024 51.8002 58.624 51.2002L59.324 44.6002Z" fill="#FDD1A7"/>
<path d="M28.8242 40.1003L28.9242 47.5003C29.2242 54.2003 36.6242 60.4003 44.2242 60.4003C50.1242 60.4003 58.0242 56.2003 59.2242 50.2003C59.6242 48.1003 59.4242 40.3003 59.4242 40.3003C55.5242 38.8003 52.1242 37.0003 51.9242 31.8003C51.9242 31.8003 47.5242 36.2003 40.9242 38.7003L28.8242 40.1003Z" fill="#FDD1A7"/>
<path d="M29.0248 41.4001L28.9248 40.5001L40.6248 37.7001L42.6248 37.0001C42.1248 38.2001 41.4248 38.7001 41.4248 38.8001C42.1248 39.1001 44.9248 39.2001 48.3248 37.3001L51.9248 34.2001C51.9248 34.2001 53.1248 38.2001 57.5248 39.6001C55.9248 39.5001 52.4248 37.1001 51.7248 34.1001C50.4248 36.3001 45.9248 39.5001 41.4248 39.6001C41.1248 39.6001 40.5248 39.6001 40.9248 38.7001C38.0248 40.0001 34.5248 41.1001 29.0248 41.4001Z" fill="#F7BB92"/>
<path d="M24.2242 44.8C23.0242 42.6 21.8242 39 21.3242 36.7C20.5242 32.6 21.3242 30.1 22.4242 28.5C23.4242 26.9 24.6242 25.5 26.5242 24.5C24.7242 24.1 23.9242 20.4 25.4242 20.3C26.7242 20.3 28.1242 21.1 32.2242 18.8C37.9242 15.8 40.9242 15 43.9242 15C48.6242 15 53.6242 16.7 55.7242 20L56.0242 20.9C56.0242 20.9 55.6242 18.8 56.6242 19.4C59.2242 20.4 59.1242 23 59.1242 23C62.2242 21.5 66.0242 27 66.0242 33C66.0242 37 65.0242 41.7 63.4242 44.2C62.1242 43.1 60.2242 43.5 59.4242 44.7V40.3C54.1242 39.3 52.1242 35.5 51.9242 31.8C50.5242 35.2 46.5242 38.2 41.4242 38.8C41.0242 39.1 41.1242 38.7 42.6242 36.1C38.9242 39 30.6242 40 28.8242 40L29.0242 44.8C27.4242 43 25.2242 43.1 24.2242 44.8Z" fill="#6E4339"/>
<path d="M34.4244 47C32.9244 47.1 30.4244 47 30.4244 47L30.0244 51.2L34.5244 51.7L38.5244 49.5V47.5L34.4244 47Z" fill="url(#paint0_radial_3_164)"/>
<path d="M53.8248 47C55.4248 47.1 58.7248 47.1 58.7248 47.1L58.5248 51.1L53.9248 51.7L49.9248 49.2V47.5L53.8248 47Z" fill="url(#paint1_radial_3_164)"/>
<path d="M36.424 43.6002C35.124 43.7002 34.224 44.7002 34.324 46.0002C34.424 47.3002 35.424 48.1002 36.624 48.0002C37.924 48.0002 38.924 47.0002 38.824 45.6002C38.724 44.5002 37.624 43.5002 36.424 43.6002Z" fill="#3F3835"/>
<path d="M51.1242 43.6002C49.9242 43.8002 48.9242 45.1002 49.1242 46.2002C49.2242 47.3002 50.2242 48.2002 51.6242 48.0002C52.7242 48.0002 53.7242 47.0002 53.6242 45.5002C53.4242 44.3002 52.4242 43.5002 51.1242 43.6002Z" fill="#3F3835"/>
<path d="M41.2246 52.6001C41.7246 53.3001 42.6246 54.0001 44.1246 54.0001C45.6246 54.0001 46.4246 53.3001 46.6246 53.0001L46.7246 52.8001" stroke="#583D33" stroke-width="0.75" stroke-miterlimit="10" stroke-linecap="round"/>
<path d="M49.5244 40.4999C50.2244 40.0999 52.9244 39.5999 54.9244 41.0999" stroke="#6D4339" stroke-miterlimit="10" stroke-linecap="round" stroke-linejoin="round"/>
<path d="M38.0244 40.5C36.6244 40.1 34.5244 40.2 33.0244 41.1" stroke="#6D4339" stroke-miterlimit="10" stroke-linecap="round" stroke-linejoin="round"/>
<path d="M49.5244 40.1999C49.5244 40.7999 49.9244 40.9999 50.2244 40.7999C51.9244 40.4999 53.5244 40.7999 54.6244 41.4999C55.2244 41.7999 56.1244 40.9999 55.1244 40.4999C53.6244 39.5999 51.4244 39.0999 49.5244 39.7999" fill="#6E4339"/>
<path d="M38.2245 40.0003C36.4245 39.6003 34.4245 39.8003 32.7245 40.8003C32.2245 41.3003 32.7245 42.0003 33.6245 41.6003C35.4245 41.0003 36.2245 40.6003 38.0245 40.8003C38.7245 41.1003 38.9245 40.2003 38.2245 40.0003Z" fill="#6E4339"/>
<circle cx="41.5" cy="41.5" r="39.5" fill="#f1e6ff" stroke="white" stroke-width="4"/>
<path d="M58.3821 18.943C57.2789 18.3674 56.0797 17.9837 54.8805 18.0796L21.0634 21.3894C18.2334 21.5333 15.787 24.4113 16.0748 27.4333L19.3846 55.5422C19.8163 60.0511 22.5025 65.1837 29.4578 65.1837C30.9447 65.1837 32.048 65.1357 32.9114 65.0398L59.1496 62.5455C62.6512 62.2097 67.5919 59.0438 67.2081 53.1918L63.9943 25.3227C63.5626 21.965 60.7805 20.0943 58.3821 18.943Z" fill="#D7C1FB"/>
<path d="M58.1909 18.9429C59.5819 19.8543 60.2535 21.1494 60.3494 22.7803L63.7551 51.8485C64.1388 55.7339 62.0762 59.0437 57.9031 60.003L27.4917 62.881C23.9421 62.929 21.7836 61.7778 20.8242 59.7152L20.0088 58.2282C21.112 61.2501 23.7023 64.8957 28.7389 65.0396C30.1779 64.9916 31.425 65.0875 32.912 64.8957L59.1502 62.4493C62.6518 62.1136 67.5925 59.0916 67.0648 52.9998L63.899 25.2746C63.5153 22.5884 61.4527 20.286 58.1909 18.9429Z" fill="url(#paint2_linear_3_164)"/>
<path d="M20.1523 57.6529L20.728 59.2838C21.5914 61.7781 24.4214 63.1211 27.4914 62.9293L57.9507 60.1472C62.1718 59.7634 64.2344 56.9813 63.7068 53.2399V52.1846L20.1523 57.6529Z" fill="#EADAF5" stroke="#F2DEFE" stroke-width="0.22065" stroke-miterlimit="10"/>
<path d="M54.1618 18.0316L21.1602 21.2934C18.474 21.5332 15.6919 23.9316 16.0276 27.0015L19.4813 55.734C19.913 58.8039 22.3114 60.7706 25.9569 60.6267L59.1024 57.173C61.5967 57.0291 63.8032 54.7746 63.7073 51.8966L60.2057 22.5885C59.8699 20.0942 57.7593 17.6958 54.1618 18.0316Z" fill="white" stroke="#EBDAFC" stroke-width="0.215853" stroke-linecap="round" stroke-linejoin="round"/>
<path d="M52.6742 25.9462L34.6385 27.7689C33.871 27.8649 33.2954 28.5364 33.3913 29.3039V29.4478C33.3913 30.2153 34.1108 31.4144 35.8856 31.1266L52.8661 29.3039C53.7775 29.3518 54.449 28.5844 54.3531 27.721V27.673C54.3531 26.6657 53.6336 25.8502 52.6742 25.9462Z" fill="#6A6E7B" stroke="#1C2130" stroke-width="0.143902" stroke-miterlimit="10"/>
<path d="M26.4368 26.5694C24.71 26.6174 22.8392 28.1044 22.9352 30.167C23.0311 32.1816 24.71 33.9564 27.0124 33.8125C28.7392 33.6686 30.3222 32.3255 30.0823 29.7353C29.9384 28.1044 28.3075 26.5215 26.4368 26.5694Z" fill="#4fbeff" stroke="#0069e0" stroke-width="0.187073" stroke-miterlimit="10"/>
<path d="M53.6337 36.5951L35.8857 38.5138C35.1182 38.6097 34.4947 39.2812 34.5426 40.0487V40.1446C34.6386 40.9121 35.3101 41.6796 36.5093 41.5357L54.1134 39.7609C55.0727 39.7609 55.6963 39.0414 55.5524 37.9381C55.4564 36.9788 54.593 36.4991 53.6337 36.5951Z" fill="#6A6E7B" stroke="#1C2130" stroke-width="0.143902" stroke-miterlimit="10"/>
<path d="M27.2519 37.3145C25.8129 37.5064 24.23 38.8974 24.0381 40.4803C24.0861 42.495 25.3332 43.934 27.3478 44.0299C29.5064 44.0779 31.3291 42.6868 31.2332 40.4803C31.1852 38.5616 29.3625 37.0747 27.2519 37.3145Z" fill="#5BD388" stroke="#00BF63" stroke-width="0.17748" stroke-miterlimit="10"/>
<path d="M54.7371 46.572L37.1331 48.2988C36.3656 48.3947 35.6461 49.0663 35.79 49.9297V50.0256C35.8859 50.7451 36.6054 51.4167 37.6127 51.2728L55.2648 49.5459C56.2721 49.5939 56.9916 48.8744 56.8956 47.8671C56.8477 47.0037 56.0802 46.3801 54.7371 46.572Z" fill="#6A6E7B" stroke="#1C2130" stroke-width="0.143902" stroke-miterlimit="10"/>
<path d="M29.027 47.3876C27.2043 47.4355 25.4774 48.9705 25.5254 50.7453C25.6693 52.8559 27.2522 54.1989 29.2669 54.151C31.0416 54.055 32.7685 52.8559 32.6246 50.5055C32.4807 48.8266 30.9457 47.2916 29.027 47.3876Z" fill="#f26110" stroke="#c44e00" stroke-width="0.172683" stroke-miterlimit="10"/>
<defs>
<radialGradient id="paint0_radial_3_164" cx="0" cy="0" r="1" gradientUnits="userSpaceOnUse" gradientTransform="translate(34.4244 48.866) scale(3.446 3.24337)">
<stop stop-color="#F7BC92"/>
<stop offset="1" stop-color="#FCDAB1"/>
</radialGradient>
<radialGradient id="paint1_radial_3_164" cx="0" cy="0" r="1" gradientUnits="userSpaceOnUse" gradientTransform="translate(53.6248 48.866) rotate(180) scale(3.446 3.24337)">
<stop stop-color="#F7BC92"/>
<stop offset="1" stop-color="#FCDAB1"/>
</radialGradient>
<linearGradient id="paint2_linear_3_164" x1="20.0232" y1="43.2144" x2="66.4413" y2="43.2144" gradientUnits="userSpaceOnUse">
<stop offset="0.36" stop-color="#CEBBFF"/>
<stop offset="0.75" stop-color="#D1BCFF"/>
<stop offset="0.95" stop-color="#DBC4FF"/>
<stop offset="1" stop-color="#DFC6FF"/>
</linearGradient>
</defs>
</svg>
